<svg xmlns="http://www.w3.org/2000/svg" version="1.1" xmlns:xlink="http://www.w3.org/1999/xlink" xmlns:svgjs="http://svgjs.dev/svgjs" width="100%" height="100%" viewBox="0 0 1000 600"><rect width="1000" height="600" x="0" y="0" fill="#262223"/><g><rect width="333.3333333333333" height="333.3333333333333" rx="13.333333333333334" ry="13.333333333333334" y="327.23951086152385" fill="#ddc6b6" transform="matrix(0.4098128317848306,0,0,0.4098128317848307,0,97.59090725019716)" x="305.0173034667969"/><path d="M466.5053487926093 568.9061905678317L466.5053487926093 568.9061905678317Q454.6514275640134 568.9061905678317 442.4682307457343 566.0025785497162Q430.3149680719718 563.0989665316005 422.113012474408 558.3693716979687L422.113012474408 558.3693716979687L423.40018068862423 528.4052930367958L429.65641689260536 528.4052930367958L436.3317311198197 543.282562861574Q439.355079716002 549.5088649210385 442.5879673238009 553.6098427198204Q445.8208549315998 557.7108205186023 451.20900094459796 559.8660789238016L451.20900094459796 559.8660789238016Q454.86096657562996 561.3627861496344 458.21359076149554 561.9016007509342Q461.566214947361 562.440415352234 465.6372586016263 562.440415352234L465.6372586016263 562.440415352234Q478.80828218895505 562.440415352234 486.44148904070244 555.6752986914697Q494.10463003696646 548.8802478861887 494.10463003696646 537.6549436924427L494.10463003696646 537.6549436924427Q494.10463003696646 527.5372028458128 488.80628645751824 521.7299788095814Q483.5378770225867 515.8928206288335 471.8934948056075 510.5046746158353L471.8934948056075 510.5046746158353L463.06292217319384 506.6431699731867Q444.9527647406168 498.65075338723943 434.50574830430367 488.08400037285975Q424.0587318679907 477.54718150299675 424.0587318679907 460.06564110526944L424.0587318679907 460.06564110526944Q424.0587318679907 447.1340906740739 430.6143095171384 437.9742424519771Q437.1998213108028 428.81439422988024 448.84420352778204 423.875260384632Q460.4885857447614 418.906192394867 475.99447260438933 418.906192394867L475.99447260438933 418.906192394867Q487.4293158097521 418.906192394867 497.4273200783153 421.92954099104924Q507.45525849139517 424.9528895872316 514.9986629095926 430.1314965886131L514.9986629095926 430.1314965886131L513.5019556837597 456.83275349747055L507.2457194797786 456.83275349747055L499.283237038348 440.6683154584761Q495.8108762744158 433.5739232080286 492.69772524468357 430.4308380337797Q489.5845742149513 427.3176870040474 485.03458424841955 426.4495968130644L485.03458424841955 426.4495968130644Q482.4602478199871 426.0305187898312 480.6342650044711 425.8209797782146Q478.80828218895505 425.58150662208135 475.78493359277275 425.58150662208135L475.78493359277275 425.58150662208135Q465.21818057839306 425.58150662208135 457.5550395821291 431.7479403925126Q449.9218327303817 437.88444001842714 449.9218327303817 448.66073204442336L449.9218327303817 448.66073204442336Q449.9218327303817 458.9880119026698 455.72905676661304 465.45378711826754Q461.566214947361 471.9195623338653 472.5520459849739 476.8886303236303L472.5520459849739 476.8886303236303L482.2507088083705 480.9896081224122Q503.1447416809966 490.02971976644244 512.2147874695435 500.26719719113885Q521.2548991135737 510.5046746158353 521.2548991135737 526.4595736432132L521.2548991135737 526.4595736432132Q521.2548991135737 545.4378212667732 506.9164438900953 557.1720059173025Q492.577988666617 568.9061905678317 466.5053487926093 568.9061905678317Z " fill="#262223" transform="matrix(0.4098128317848306,0,0,0.4098128317848307,0,97.59090725019716)"/><path d="M764.6611589215483 568.9061868696186L764.6611589215483 568.9061868696186Q753.1851161185242 568.9061868696186 741.3902943487494 566.0951359809992Q729.6244524850429 563.2840850923797 721.6839582223445 558.7052599335973L721.6839582223445 558.7052599335973L722.9300941832788 529.6963739592863L728.9868945515416 529.6963739592863L735.4494136047597 544.099387275203Q738.3763841176522 550.1272077373975 741.5062139730223 554.0974548687467Q744.6360438283925 558.067702000096 749.8524269206763 560.1542552370095L749.8524269206763 560.1542552370095Q753.3879754610019 561.6032505404215 756.6337249406452 562.12488884965Q759.8794744202883 562.6465271588784 763.8207416455693 562.6465271588784L763.8207416455693 562.6465271588784Q776.571900315596 562.6465271588784 783.961776362998 556.0970683874555Q791.3806323164681 549.5186297099643 791.3806323164681 538.6511649343734L791.3806323164681 538.6511649343734Q791.3806323164681 528.8559566833073 786.2511889423891 523.2338549060682Q781.1507254743784 517.5827732227609 769.877542013832 512.3663901304773L769.877542013832 512.3663901304773L761.3284697237004 508.6279822476739Q743.7956265524135 500.8903473274531 733.6816393345969 490.66044048536344Q723.5676521167802 480.45951354934203 723.5676521167802 463.5352484054883L723.5676521167802 463.5352484054883Q723.5676521167802 451.0159289840075 729.9142515457254 442.1480777271252Q736.2898308807387 433.28022647024295 747.5630143412851 428.4985419689829Q758.8361978018315 423.6878775616546 773.8477891451812 423.6878775616546L773.8477891451812 423.6878775616546Q784.91811326325 423.6878775616546 794.597401890043 426.6148480745471Q804.3056704229043 429.54181858743965 811.6086067521014 434.5553423372456L811.6086067521014 434.5553423372456L810.1596114486894 460.4054185501181L804.1028110804266 460.4054185501181L796.394156066274 444.75626927326704Q793.0324869623579 437.8880315350935 790.0185767312606 434.84514139792805Q787.0046665001635 431.83123116683083 782.5997207777905 430.99081389085177L782.5997207777905 430.99081389085177Q780.1074488559217 430.5850952058964 778.3396745857589 430.38223586341866Q776.571900315596 430.1503966148727 773.6449298027035 430.1503966148727L773.6449298027035 430.1503966148727Q763.4150229606139 430.1503966148727 755.9961670071438 436.12025726493073Q748.6062909597418 442.06113800892047 748.6062909597418 452.4939041934878L748.6062909597418 452.4939041934878Q748.6062909597418 462.49197178703156 754.2283927369809 468.751631497772Q759.8794744202883 475.01129120851243 770.5150999473333 479.8219556158407L770.5150999473333 479.8219556158407L779.904589513444 483.79220274718995Q800.1325639490774 492.54413437979923 808.9134754877549 502.4552622551382Q817.6654071203642 512.3663901304773 817.6654071203642 527.8126800648506L817.6654071203642 527.8126800648506Q817.6654071203642 546.1859405121165 803.784032113676 557.5460636908676Q789.9026571069877 568.9061868696186 764.6611589215483 568.9061868696186ZM867.3369661213321 568.2976088421857L867.3369661213321 568.2976088421857Q854.3829481088277 568.2976088421857 846.9930720614258 561.9220295071723Q839.5742161079556 555.5754300782271 839.5742161079556 541.1724167623105L839.5742161079556 541.1724167623105Q839.5742161079556 536.1588930125044 839.6901357322287 531.6670075719269Q839.7770754504334 527.1751221313493 839.7770754504334 521.1473016691548L839.7770754504334 521.1473016691548L839.7770754504334 471.6786020106645L824.9683434495613 471.6786020106645L824.9683434495613 467.09977685188215L830.5904452268004 466.2593595759031Q836.6472455950632 465.21608295744636 840.9362716931631 462.49197178703156Q845.1963178851947 459.796840522685 848.7608463315886 454.98617611535667L848.7608463315886 454.98617611535667L862.3234423715262 436.2071969831355L868.5831020822666 436.2071969831355L867.9455441487653 465.21608295744636L891.7380470307926 465.21608295744636L891.7380470307926 471.6786020106645L867.7426848062876 471.6786020106645L867.7426848062876 542.8242714082003Q867.7426848062876 550.3590469859435 870.9884342859308 554.0974548687467Q874.2052038595057 557.8648426576183 879.015868266834 557.8648426576183L879.015868266834 557.8648426576183Q883.1889747406609 557.8648426576183 886.5216639385088 555.8652291389095Q889.8543531363567 553.894595526269 893.1870423342046 550.5619063284212L893.1870423342046 550.5619063284212L895.9111535046195 553.6917361837914Q891.9409063732702 560.5599739219649 884.8408293865507 564.4432813351093Q877.7697323058995 568.2976088421857 867.3369661213321 568.2976088421857ZM940.1344901647578 568.2976088421857L940.1344901647578 568.2976088421857Q932.0201164656498 568.2976088421857 925.3257581638858 565.2547187050202Q918.66037976819 562.2408084739229 914.8060522611137 555.2566511114765Q910.9227448479692 548.27249374903 911.1545840965151 536.7964509460058L911.1545840965151 536.7964509460058L911.7631621239482 484.40078077462306Q911.7631621239482 479.8219556158407 910.314166820536 477.73540237892723Q908.8361916110557 475.6488491420138 905.0977837282524 474.8084318660347L905.0977837282524 474.8084318660347L902.5765319003153 473.96801459005565L902.5765319003153 470.2296067072524L938.2797761763903 463.3323890630106L940.5691887557814 465.62180164240175L939.5259121373247 495.0653862077363L939.5259121373247 542.4185527232449Q939.5259121373247 549.5186297099643 943.380239644401 552.7353992835393Q947.2345671514772 555.9811487631825 953.0885081772623 555.9811487631825L953.0885081772623 555.9811487631825Q959.145308545525 555.9811487631825 964.042912671058 554.2133744930197Q968.940516796591 552.4456002228569 974.1568998888747 548.881071776463L974.1568998888747 548.881071776463L974.7944578223761 484.632620023169Q974.7944578223761 479.8219556158407 973.4324022371686 477.9382617214049Q972.0703466519612 476.05456782696916 968.3029588630898 475.01129120851243L968.3029588630898 475.01129120851243L966.0135462836986 474.4027131810793L966.0135462836986 470.6353253922078L1000.8763732837945 463.3323890630106L1003.1657858631856 465.62180164240175L1002.5282279296842 495.0653862077363L1002.5282279296842 549.721489052442Q1002.5282279296842 554.0974548687467 1003.687424172414 556.7056464148885Q1004.8176405090755 559.3138379610303 1008.7878876404247 560.5599739219649L1008.7878876404247 560.5599739219649L1011.5119988108395 561.4003911979439L1011.5119988108395 565.3706383292931L976.2434531257882 567.4571915662066L974.3597592313524 554.3003142112244Q967.2596822446329 560.3571145794872 958.9134692969791 564.3273617108364Q950.5672563493251 568.2976088421857 940.1344901647578 568.2976088421857ZM1063.878689076154 568.2976088421857L1063.878689076154 568.2976088421857Q1051.562228997151 568.2976088421857 1041.7670207460849 562.7624467831513Q1031.9428325889508 557.2272847241169 1026.4366504359846 545.6643022028882Q1020.9014883769502 534.072339775591 1020.9014883769502 516.1337779193489L1020.9014883769502 516.1337779193489Q1020.9014883769502 498.19521606310656 1027.1611480876904 486.1975349508541Q1033.420807798431 474.1998538386016 1043.8535739829983 468.1430534703389Q1054.2863401675659 462.08625310207617 1066.8056595890466 462.08625310207617L1066.8056595890466 462.08625310207617Q1074.3114552607215 462.08625310207617 1081.2086729049631 463.854027372239Q1088.0769106431367 465.62180164240175 1093.2932937354203 469.1863300887956L1093.2932937354203 469.1863300887956L1093.2932937354203 442.06113800892047Q1093.2932937354203 437.6851721926158 1091.931238150213 435.6855586739071Q1090.598162471074 433.71492506126657 1086.425055997247 432.67164844280984L1086.425055997247 432.67164844280984L1082.25194952342 431.83123116683083L1082.25194952342 427.8609840354815L1118.5347919208598 418.90619306039457L1121.2589030912745 420.7609070487621L1120.4184858152955 450.20449161409664L1120.4184858152955 550.5619063284212Q1120.4184858152955 554.5321534597704 1121.896461024776 557.1403450059122Q1123.345456328188 559.748536552054 1127.1128441170597 560.7918131705107L1127.1128441170597 560.7918131705107L1129.4022566964509 561.4003911979439L1129.4022566964509 565.3706383292931L1094.7712689449008 567.6600509086842L1092.887575050465 558.908119276075Q1087.2364933671577 563.2840850923797 1079.9335570379606 565.7763570142486Q1072.6306207087634 568.2976088421857 1063.878689076154 568.2976088421857ZM1075.3547318791782 558.7052599335973L1075.3547318791782 558.7052599335973Q1084.3385027603335 558.7052599335973 1092.2500171169636 552.8513189078122L1092.2500171169636 552.8513189078122L1092.2500171169636 475.2431304570583Q1084.541362102811 470.43246604973007 1075.557591221656 470.43246604973007L1075.557591221656 470.43246604973007Q1065.327684379566 470.43246604973007 1058.024748050369 481.1840112010481Q1050.721811721172 491.9355563523661 1050.721811721172 515.6990793283251L1050.721811721172 515.6990793283251Q1050.721811721172 539.4915822103524 1057.6190293654136 549.0839311189408Q1064.5162470096554 558.7052599335973 1075.3547318791782 558.7052599335973ZM1190.9555771853984 462.08625310207617L1190.9555771853984 462.08625310207617Q1204.0834746343123 462.08625310207617 1213.472964200423 467.50549553683754Q1222.8624537665335 472.9247379715989 1227.9918971406125 482.4301471619825Q1233.092360608623 491.9355563523661 1233.092360608623 504.22303652530104L1233.092360608623 504.22303652530104Q1233.092360608623 506.94714769571584 1232.8895012661455 509.35247989938Q1232.6866419236676 511.75781210304416 1232.0490839901663 513.8443653399577L1232.0490839901663 513.8443653399577L1169.2496275402846 513.8443653399577Q1169.4524868827623 535.3184757365254 1177.2770615211878 544.707965302636Q1185.1016361596132 554.0974548687467 1200.1422074090312 554.0974548687467L1200.1422074090312 554.0974548687467Q1210.5749735935988 554.0974548687467 1217.0374926468166 550.6488460466259Q1223.500011700035 547.2292171305733 1228.9192541347961 540.9695574198328L1228.9192541347961 540.9695574198328L1232.2519433326443 544.099387275203Q1225.9922836219037 555.5754300782271 1215.2697183766538 561.9220295071723Q1204.5181732253359 568.2976088421857 1189.7094412244637 568.2976088421857L1189.7094412244637 568.2976088421857Q1174.8717293175237 568.2976088421857 1163.6275257630455 562.0379491314452Q1152.354342302499 555.7782894207048 1145.9787629674856 543.98346765093Q1139.6321635385405 532.1886458811553 1139.6321635385405 515.6990793283251L1139.6321635385405 515.6990793283251Q1139.6321635385405 498.60093474806195 1147.0220395859424 486.71917326008247Q1154.4408955394126 474.8084318660347 1166.2357173091873 468.4618324370896Q1178.0015591728938 462.08625310207617 1190.9555771853984 462.08625310207617ZM1189.9123005669414 468.1430534703389L1189.9123005669414 468.1430534703389Q1183.8555001986788 468.1430534703389 1179.3636147581012 471.5916622924598Q1174.8717293175237 475.01129120851243 1172.2635377713818 483.67628312291697Q1169.65534622524 492.34127503732157 1169.2496275402846 507.99042431417257L1169.2496275402846 507.99042431417257L1206.6047264622493 507.99042431417257Q1208.8941390416405 486.92203260256014 1204.9238919102913 477.5325430364495Q1200.953644778942 468.1430534703389 1189.9123005669414 468.1430534703389ZM1291.5158512422004 565.3706383292931L1243.7279861356683 565.3706383292931L1243.7279861356683 561.4003911979439L1247.0896552395843 560.5599739219649Q1253.9578929777579 558.4734206850513 1253.9578929777579 550.3590469859435L1253.9578929777579 550.3590469859435L1253.9578929777579 488.80572649699593Q1253.7550336352801 484.40078077462306 1252.508897674346 482.02442847702713Q1251.2627617134112 479.61909627336297 1247.0896552395843 478.77867899738396L1247.0896552395843 478.77867899738396L1243.7279861356683 477.9382617214049L1243.7279861356683 474.1998538386016L1277.5475365173074 462.08625310207617L1280.0398084391763 464.37566568146735L1281.5177836486566 477.32968369397184Q1289.0235793203315 470.6353253922078 1298.2971492621691 466.3752792001761Q1307.599699110075 462.08625310207617 1316.5544900851621 462.08625310207617L1316.5544900851621 462.08625310207617Q1330.3199454675776 462.08625310207617 1337.7388014210476 469.592048773751Q1345.1576573745176 477.0978444454259 1345.1576573745176 492.54413437979923L1345.1576573745176 492.54413437979923L1345.1576573745176 550.5619063284212Q1345.1576573745176 558.7052599335973 1352.6634530461924 560.7918131705107L1352.6634530461924 560.7918131705107L1354.9528656255836 561.4003911979439L1354.9528656255836 565.3706383292931L1306.9621411765738 565.3706383292931L1306.9621411765738 561.4003911979439L1310.091971031944 560.5599739219649Q1316.9891886761857 558.2705613425737 1316.9891886761857 550.3590469859435L1316.9891886761857 550.3590469859435L1316.9891886761857 488.37102790597226Q1316.9891886761857 481.06809157677515 1313.8593588208155 477.73540237892723Q1310.7295289654453 474.4027131810793 1303.4265926362482 474.4027131810793L1303.4265926362482 474.4027131810793Q1293.1966857941584 474.4027131810793 1282.1263616760898 483.3575041561663L1282.1263616760898 483.3575041561663L1282.1263616760898 550.5619063284212Q1282.1263616760898 558.7052599335973 1289.429298005287 560.7918131705107L1289.429298005287 560.7918131705107L1291.5158512422004 561.4003911979439L1291.5158512422004 565.3706383292931ZM1402.7407307321157 568.2976088421857L1402.7407307321157 568.2976088421857Q1389.7867127196114 568.2976088421857 1382.3968366722095 561.9220295071723Q1374.9779807187394 555.5754300782271 1374.9779807187394 541.1724167623105L1374.9779807187394 541.1724167623105Q1374.9779807187394 536.1588930125044 1375.0939003430124 531.6670075719269Q1375.180840061217 527.1751221313493 1375.180840061217 521.1473016691548L1375.180840061217 521.1473016691548L1375.180840061217 471.6786020106645L1360.3721080603452 471.6786020106645L1360.3721080603452 467.09977685188215L1366.0231897436524 466.2593595759031Q1372.051010205847 465.21608295744636 1376.3400363039468 462.49197178703156Q1380.6290624020467 459.796840522685 1384.1646109423723 454.98617611535667L1384.1646109423723 454.98617611535667L1397.72720698231 436.2071969831355L1403.9868666930504 436.2071969831355L1403.349308759549 465.21608295744636L1427.1418116415762 465.21608295744636L1427.1418116415762 471.6786020106645L1403.1464494170712 471.6786020106645L1403.1464494170712 542.8242714082003Q1403.1464494170712 550.3590469859435 1406.3921988967145 554.0974548687467Q1409.6089684702895 557.8648426576183 1414.4196328776177 557.8648426576183L1414.4196328776177 557.8648426576183Q1418.5927393514446 557.8648426576183 1421.9254285492925 555.8652291389095Q1425.2581177471404 553.894595526269 1428.6197868510565 550.5619063284212L1428.6197868510565 550.5619063284212L1431.3149181154033 553.6917361837914Q1427.344670984054 560.5599739219649 1420.2735739034026 564.4432813351093Q1413.1734969166835 568.2976088421857 1402.7407307321157 568.2976088421857ZM1536.8887159220112 565.3706383292931L1484.5220256566965 565.3706383292931L1484.5220256566965 560.9946725129885L1488.8979914730014 559.748536552054Q1493.0710979468283 558.4734206850513 1494.230294189558 556.0970683874555Q1495.3894904322876 553.6917361837914 1495.3894904322876 549.3157703674867L1495.3894904322876 549.3157703674867Q1495.5923497747656 537.2021696309612 1495.5923497747656 525.0885688944358Q1495.5923497747656 513.0039480639786 1495.5923497747656 500.6874879849754L1495.5923497747656 500.6874879849754L1495.5923497747656 492.13841569484384Q1495.5923497747656 480.0248149583184 1495.5923497747656 467.9401941278612Q1495.5923497747656 455.82659339133573 1495.3894904322876 443.7129926548103L1495.3894904322876 443.7129926548103Q1495.3894904322876 439.33702683850566 1494.346213813831 436.9316946348415Q1493.3029371953744 434.5553423372456 1489.1298307215473 433.28022647024295L1489.1298307215473 433.28022647024295L1484.5220256566965 431.83123116683083L1484.5220256566965 427.45526535052613L1542.9455162902739 427.45526535052613Q1567.3755771058027 427.45526535052613 1580.6193941789895 436.72883529236384Q1593.8632112521764 446.0313851402697 1593.8632112521764 462.7238110355775L1593.8632112521764 462.7238110355775Q1593.8632112521764 471.8814613531422 1586.6761945472522 481.2709509192528Q1579.4601979362599 490.66044048536344 1564.6514659353877 495.6739642351695L1564.6514659353877 495.6739642351695L1593.0227939761974 550.9676250133765Q1596.5873224225913 557.8648426576183 1604.093118094266 560.3571145794872L1604.093118094266 560.3571145794872L1608.0633652256154 561.1975318554662L1608.0633652256154 565.3706383292931L1571.1139849886058 565.3706383292931L1540.0185457773816 500.28176930002L1525.006954434032 500.28176930002Q1525.006954434032 515.0905013008921 1525.006954434032 526.9722627888716Q1525.006954434032 538.8830041829193 1525.2098137765095 549.3157703674867L1525.2098137765095 549.3157703674867Q1525.2098137765095 553.4888768413136 1526.5718693617168 555.9811487631825Q1527.9339249469242 558.4734206850513 1531.9041720782736 559.5166973035081L1531.9041720782736 559.5166973035081L1536.8887159220112 560.9946725129885L1536.8887159220112 565.3706383292931ZM1525.006954434032 494.2249689317573L1525.006954434032 494.2249689317573L1536.2801378945783 494.2249689317573Q1551.0888698954502 494.2249689317573 1557.986087539692 486.71917326008247Q1564.8543252778657 479.18439768233935 1564.8543252778657 463.76708765403424L1564.8543252778657 463.76708765403424Q1564.8543252778657 448.3207977196609 1558.2758866003744 440.90194176619076Q1551.7264278289515 433.51206571878885 1537.1205551705573 433.51206571878885L1537.1205551705573 433.51206571878885L1525.2098137765095 433.51206571878885Q1525.2098137765095 441.62643941789685 1525.1228740583047 450.08857198982366Q1525.006954434032 458.55070456175054 1525.006954434032 469.07041046452264Q1525.006954434032 479.61909627336297 1525.006954434032 494.2249689317573ZM1666.6897152016704 462.08625310207617L1666.6897152016704 462.08625310207617Q1679.8176126505841 462.08625310207617 1689.207102216695 467.50549553683754Q1698.5965917828055 472.9247379715989 1703.7260351568843 482.4301471619825Q1708.8264986248953 491.9355563523661 1708.8264986248953 504.22303652530104L1708.8264986248953 504.22303652530104Q1708.8264986248953 506.94714769571584 1708.6236392824176 509.35247989938Q1708.4207799399398 511.75781210304416 1707.7832220064386 513.8443653399577L1707.7832220064386 513.8443653399577L1644.9837655565564 513.8443653399577Q1645.186624899034 535.3184757365254 1653.0111995374598 544.707965302636Q1660.8357741758853 554.0974548687467 1675.8763454253033 554.0974548687467L1675.8763454253033 554.0974548687467Q1686.3091116098706 554.0974548687467 1692.7716306630887 550.6488460466259Q1699.2341497163068 547.2292171305733 1704.6533921510684 540.9695574198328L1704.6533921510684 540.9695574198328L1707.986081348916 544.099387275203Q1701.7264216381757 555.5754300782271 1691.0038563929259 561.9220295071723Q1680.252311241608 568.2976088421857 1665.443579240736 568.2976088421857L1665.443579240736 568.2976088421857Q1650.6058673337955 568.2976088421857 1639.3616637793175 562.0379491314452Q1628.0884803187712 555.7782894207048 1621.712900983758 543.98346765093Q1615.3663015548125 532.1886458811553 1615.3663015548125 515.6990793283251L1615.3663015548125 515.6990793283251Q1615.3663015548125 498.60093474806195 1622.7561776022144 486.71917326008247Q1630.1750335556844 474.8084318660347 1641.9698553254595 468.4618324370896Q1653.7356971891656 462.08625310207617 1666.6897152016704 462.08625310207617ZM1665.6464385832135 468.1430534703389L1665.6464385832135 468.1430534703389Q1659.589638214951 468.1430534703389 1655.0977527743732 471.5916622924598Q1650.6058673337955 475.01129120851243 1647.9976757876536 483.67628312291697Q1645.3894842415118 492.34127503732157 1644.9837655565564 507.99042431417257L1644.9837655565564 507.99042431417257L1682.3388644785214 507.99042431417257Q1684.6282770579126 486.92203260256014 1680.6580299265631 477.5325430364495Q1676.6877827952142 468.1430534703389 1665.6464385832135 468.1430534703389ZM1770.5826784563203 568.2976088421857L1770.5826784563203 568.2976088421857Q1756.4115043889494 568.2976088421857 1744.9354615859254 562.12488884965Q1733.4594187829016 555.9811487631825 1726.8809801054103 544.1863269934076Q1720.3025414279193 532.391505223633 1720.3025414279193 515.4962199858475L1720.3025414279193 515.4962199858475Q1720.3025414279193 498.60093474806195 1727.6054777571164 486.71917326008247Q1734.9084140863135 474.8084318660347 1747.1089545410439 468.4618324370896Q1759.3384749018421 462.08625310207617 1773.9443475602363 462.08625310207617L1773.9443475602363 462.08625310207617Q1785.8261090482158 462.08625310207617 1794.17232199587 466.0565002334254Q1802.518534943524 470.0267473647747 1806.8945007598284 476.17048745124214Q1811.2704665761332 482.3142275377096 1811.2704665761332 489.2114451819513L1811.2704665761332 489.2114451819513Q1811.2704665761332 495.0653862077363 1807.8508376600805 498.19521606310656Q1804.4022288379595 501.3250459184768 1798.9829864031983 501.3250459184768L1798.9829864031983 501.3250459184768Q1793.129045377413 501.3250459184768 1789.4775772128144 497.1519394446498Q1785.8261090482158 492.97883297082285 1785.1885511147145 486.4873340115365L1785.1885511147145 486.4873340115365Q1784.985691772237 482.3142275377096 1785.304470738988 479.4162369308853Q1785.6232497057383 476.4892664179928 1785.1885511147145 473.765155247578L1785.1885511147145 473.765155247578Q1784.377113744804 470.2296067072524 1782.3775002260952 468.98347074631795Q1780.4068666134547 467.70835487931527 1776.8423381670607 467.70835487931527L1776.8423381670607 467.70835487931527Q1763.714440718147 467.70835487931527 1756.7302833557003 478.2570406881556Q1749.7171460871857 488.80572649699593 1749.7171460871857 512.3663901304773L1749.7171460871857 512.3663901304773Q1749.7171460871857 532.6233444721788 1757.4547810074066 543.4618293417017Q1765.1634360215592 554.3003142112244 1781.4501432319114 554.3003142112244L1781.4501432319114 554.3003142112244Q1791.0424921405 554.3003142112244 1797.3021518512403 550.6488460466259Q1803.5618115619807 546.9973778820272 1808.7781946542643 540.1291401438538L1808.7781946542643 540.1291401438538L1812.110883852112 542.6214120657226Q1806.8945007598284 555.1407314872034 1796.1429556085106 561.7191701646946Q1785.4203903632608 568.2976088421857 1770.5826784563203 568.2976088421857ZM1874.0989029320833 568.2976088421857L1874.0989029320833 568.2976088421857Q1858.6526129977099 568.2976088421857 1847.060650570413 561.8350897889675Q1835.4976680491839 555.3435908296811 1829.1220887141706 543.4618293417017Q1822.7465093791573 531.5800678537221 1822.7465093791573 515.0905013008921L1822.7465093791573 515.0905013008921Q1822.7465093791573 498.60093474806195 1829.527807399126 486.71917326008247Q1836.3091054190947 474.8084318660347 1847.9010678463917 468.4618324370896Q1859.4930302736886 462.08625310207617 1874.0989029320833 462.08625310207617L1874.0989029320833 462.08625310207617Q1888.7047755904775 462.08625310207617 1900.2677581117066 468.4618324370896Q1911.8597205390035 474.8084318660347 1918.6410185589723 486.6032536358095Q1925.422316578941 498.3980754055843 1925.422316578941 515.0905013008921L1925.422316578941 515.0905013008921Q1925.422316578941 531.5800678537221 1919.0467372439277 543.5777489659747Q1912.7001378149823 555.5754300782271 1901.2240950119583 561.9220295071723Q1889.7480522089343 568.2976088421857 1874.0989029320833 568.2976088421857ZM1874.0989029320833 562.4436678164006L1874.0989029320833 562.4436678164006Q1881.6046986037584 562.4436678164006 1886.2994433868132 558.3864809668466Q1890.994188169869 554.3003142112244 1893.0807414067824 544.099387275203Q1895.1672946436954 533.8694804331133 1895.1672946436954 515.4962199858475L1895.1672946436954 515.4962199858475Q1895.1672946436954 496.9201001961039 1893.0807414067824 486.6032536358095Q1890.994188169869 476.2864070755151 1886.2994433868132 472.2002403198929Q1881.6046986037584 468.1430534703389 1874.0989029320833 468.1430534703389L1874.0989029320833 468.1430534703389Q1866.5641273543404 468.1430534703389 1861.9853021955576 472.2002403198929Q1857.4064770367756 476.2864070755151 1855.2040041755893 486.6032536358095Q1853.0015313144024 496.9201001961039 1853.0015313144024 515.4962199858475L1853.0015313144024 515.4962199858475Q1853.0015313144024 533.8694804331133 1855.2040041755893 544.099387275203Q1857.4064770367756 554.3003142112244 1861.9853021955576 558.3864809668466Q1866.5641273543404 562.4436678164006 1874.0989029320833 562.4436678164006ZM1987.178496410366 565.3706383292931L1935.014665487529 565.3706383292931L1935.014665487529 561.4003911979439L1938.1444953428997 560.3571145794872Q1942.3176018167267 559.3138379610303 1943.8825167444118 556.8215660391616Q1945.4474316720969 554.3003142112244 1945.4474316720969 550.1272077373975L1945.4474316720969 550.1272077373975L1945.4474316720969 489.00858583947365Q1945.2445723296194 484.40078077462306 1943.7665971201388 482.02442847702713Q1942.3176018167267 479.61909627336297 1938.1444953428997 478.77867899738396L1938.1444953428997 478.77867899738396L1935.014665487529 477.9382617214049L1935.014665487529 474.1998538386016L1969.0370752116462 462.08625310207617L1971.529347133515 464.37566568146735L1973.413041027951 482.7489261287332L1973.413041027951 484.19792143214534Q1976.5428708833213 478.3729603124286 1981.3245553845811 473.3594365626226Q1986.1352197919093 468.3459128128166 1991.7573215691484 465.21608295744636Q1997.4084032524559 462.08625310207617 2003.030505029695 462.08625310207617L2003.030505029695 462.08625310207617Q2010.9709992923938 462.08625310207617 2014.9412464237428 466.2593595759031Q2018.8825136490238 470.43246604973007 2018.8825136490238 476.89498510294817L2018.8825136490238 476.89498510294817Q2018.8825136490238 483.99506208966767 2014.9412464237428 487.6465302542662Q2010.9709992923938 491.29799841886484 2005.3199176090864 491.29799841886484L2005.3199176090864 491.29799841886484Q1996.9737046614325 491.29799841886484 1990.9458841992375 483.79220274718995L1990.9458841992375 483.79220274718995L1990.5111856082142 483.3575041561663Q1988.4246323713007 480.8652322342974 1985.816440825159 480.5464532675468Q1983.208249279017 480.2276743007961 1980.7159773571482 483.1546448136886L1980.7159773571482 483.1546448136886Q1978.6294241202347 485.24119805060207 1976.8616498500717 488.0522489392216Q1975.0648956738407 490.8922797339094 1973.6159003704286 494.6306876167127L1973.6159003704286 494.6306876167127L1973.6159003704286 549.3157703674867Q1973.6159003704286 553.2570375927677 1975.296734922387 555.8652291389095Q1976.9485895682767 558.4734206850513 1980.9188366996257 559.5166973035081L1980.9188366996257 559.5166973035081L1987.178496410366 561.4003911979439L1987.178496410366 565.3706383292931ZM2069.597349268448 568.2976088421857L2069.597349268448 568.2976088421857Q2057.2808891894456 568.2976088421857 2047.4856809383793 562.7624467831513Q2037.661492781245 557.2272847241169 2032.1553106282788 545.6643022028882Q2026.6201485692443 534.072339775591 2026.6201485692443 516.1337779193489L2026.6201485692443 516.1337779193489Q2026.6201485692443 498.19521606310656 2032.8798082799851 486.1975349508541Q2039.1394679907255 474.1998538386016 2049.5722341752926 468.1430534703389Q2060.00500035986 462.08625310207617 2072.5243197813406 462.08625310207617L2072.5243197813406 462.08625310207617Q2080.030115453016 462.08625310207617 2086.9273330972574 463.854027372239Q2093.795570835431 465.62180164240175 2099.011953927715 469.1863300887956L2099.011953927715 469.1863300887956L2099.011953927715 442.06113800892047Q2099.011953927715 437.6851721926158 2097.649898342507 435.6855586739071Q2096.316822663368 433.71492506126657 2092.143716189541 432.67164844280984L2092.143716189541 432.67164844280984L2087.970609715714 431.83123116683083L2087.970609715714 427.8609840354815L2124.253452113154 418.90619306039457L2126.977563283569 420.7609070487621L2126.1371460075898 450.20449161409664L2126.1371460075898 550.5619063284212Q2126.1371460075898 554.5321534597704 2127.6151212170707 557.1403450059122Q2129.0641165204825 559.748536552054 2132.8315043093544 560.7918131705107L2132.8315043093544 560.7918131705107L2135.1209168887453 561.4003911979439L2135.1209168887453 565.3706383292931L2100.489929137195 567.6600509086842L2098.60623524276 558.908119276075Q2092.955153559452 563.2840850923797 2085.652217230255 565.7763570142486Q2078.3492809010577 568.2976088421857 2069.597349268448 568.2976088421857ZM2081.073392071473 558.7052599335973L2081.073392071473 558.7052599335973Q2090.0571629526276 558.7052599335973 2097.968677309258 552.8513189078122L2097.968677309258 552.8513189078122L2097.968677309258 475.2431304570583Q2090.260022295106 470.43246604973007 2081.2762514139504 470.43246604973007L2081.2762514139504 470.43246604973007Q2071.0463445718606 470.43246604973007 2063.7434082426635 481.1840112010481Q2056.4404719134664 491.9355563523661 2056.4404719134664 515.6990793283251L2056.4404719134664 515.6990793283251Q2056.4404719134664 539.4915822103524 2063.3376895577085 549.0839311189408Q2070.2349072019497 558.7052599335973 2081.073392071473 558.7052599335973Z " fill="#ddc6b6" transform="matrix(0.4098128317848306,0,0,0.4098128317848307,0,97.59090725019716)"/></g></svg>